<svg width="31" height="31" viewBox="0 0 31 31" fill="none" xmlns="http://www.w3.org/2000/svg">
<path d="M0 15.5931C0.00087301 19.3069 1.31823 22.8986 3.71529 25.7227C6.11235 28.5468 9.43192 30.418 13.0773 31V20.1002H9.145V15.5931H13.082V12.1621C12.9951 11.3591 13.0849 10.5466 13.3452 9.78246C13.6055 9.01831 14.0298 8.3212 14.588 7.74063C15.1463 7.16007 15.8247 6.7103 16.5751 6.42326C17.3256 6.13623 18.1296 6.01897 18.9301 6.07981C20.0926 6.09853 21.2551 6.20302 22.4021 6.39172V10.2267H20.4429C20.11 10.1828 19.7714 10.2148 19.4524 10.3202C19.1333 10.4257 18.8419 10.6019 18.5996 10.8359C18.3574 11.07 18.1705 11.3558 18.0528 11.6722C17.9351 11.9887 17.8895 12.3277 17.9195 12.6643V15.5931H22.2146L21.5279 20.1018H17.9195V31C20.8454 30.5348 23.5774 29.2357 25.7922 27.2567C28.0071 25.2777 29.6119 22.7015 30.4168 19.8333C31.2217 16.965 31.1929 13.9248 30.3338 11.0725C29.4747 8.22019 27.8213 5.67531 25.5694 3.73914C23.3174 1.80297 20.5613 0.556588 17.6272 0.14757C14.6931 -0.261448 11.7039 0.184022 9.01364 1.43124C6.32336 2.67846 4.04459 4.67519 2.44715 7.18504C0.849701 9.69488 0.000470224 12.6127 0 15.5931Z" fill="white"/>
</svg>
