<svg width="50" height="48" viewBox="0 0 50 48" fill="none" xmlns="http://www.w3.org/2000/svg">
<path d="M25.0042 42.082C19.8791 42.082 19.275 42.056 17.275 41.972C15.7153 41.9228 14.1759 41.6184 12.7229 41.072C11.4795 40.6075 10.3504 39.8998 9.40711 38.994C8.46386 38.0881 7.72714 37.0038 7.24373 35.81C6.69645 34.4101 6.40127 32.931 6.37082 31.436C6.25415 29.52 6.25415 28.892 6.25415 24.01C6.25415 19.076 6.28123 18.5 6.37082 16.59C6.40194 15.0971 6.69711 13.62 7.24373 12.222C7.72658 11.0267 8.4638 9.94117 9.4083 9.03479C10.3528 8.12841 11.4838 7.42109 12.7292 6.95801C14.1847 6.43041 15.7236 6.1463 17.2792 6.11801C19.2687 6.01001 19.9229 6.01001 25.0042 6.01001C30.1708 6.01001 30.7646 6.03601 32.7333 6.11801C34.2916 6.14601 35.8375 6.43001 37.2958 6.95801C38.5408 7.42163 39.6715 8.12913 40.616 9.03544C41.5604 9.94175 42.2978 11.027 42.7812 12.222C43.3375 13.642 43.6354 15.142 43.6583 16.656C43.775 18.572 43.775 19.198 43.775 24.078C43.775 28.958 43.7458 29.598 43.6583 31.492C43.6272 32.9884 43.3313 34.4688 42.7833 35.87C42.2987 37.0647 41.5606 38.1495 40.6159 39.0557C39.6712 39.9619 38.5406 40.6697 37.2958 41.134C35.8375 41.658 34.2979 41.942 32.7416 41.972C30.7521 42.082 30.1 42.082 25.0042 42.082ZM24.9333 9.17601C19.8375 9.17601 19.3083 9.20001 17.3187 9.28601C16.1305 9.30092 14.9537 9.51131 13.8396 9.90801C13.0269 10.207 12.2886 10.6662 11.6721 11.256C11.0556 11.8457 10.5747 12.5529 10.2604 13.332C9.84373 14.412 9.62498 15.554 9.61248 16.706C9.50207 18.644 9.50207 19.152 9.50207 24.01C9.50207 28.81 9.52082 29.392 9.61248 31.318C9.63123 32.458 9.84998 33.588 10.2604 34.658C10.8979 36.232 12.1979 37.476 13.8417 38.08C14.9544 38.4792 16.1309 38.6897 17.3187 38.702C19.3354 38.814 19.8667 38.814 24.9333 38.814C30.0437 38.814 30.5729 38.79 32.5458 38.702C33.7342 38.6882 34.9111 38.4778 36.025 38.08C36.8333 37.7787 37.5674 37.3192 38.1808 36.7308C38.7941 36.1423 39.2731 35.4378 39.5875 34.662C40.0042 33.582 40.2229 32.438 40.2354 31.286H40.2583C40.3479 29.374 40.3479 28.864 40.3479 23.978C40.3479 19.092 40.325 18.578 40.2354 16.668C40.2166 15.5289 39.9975 14.4011 39.5875 13.332C39.2739 12.5551 38.7951 11.8494 38.1818 11.2599C37.5684 10.6704 36.8339 10.21 36.025 9.90801C34.9104 9.50801 33.7333 9.30001 32.5458 9.28601C30.5312 9.17601 30.0042 9.17601 24.9333 9.17601ZM25.0042 33.248C23.0991 33.2492 21.2365 32.708 19.6518 31.6928C18.0672 30.6777 16.8318 29.2342 16.1018 27.5449C15.3718 25.8557 15.18 23.9965 15.5508 22.2026C15.9215 20.4087 16.8381 18.7607 18.1846 17.4669C19.5311 16.1732 21.247 15.2918 23.1154 14.9344C24.9837 14.5769 26.9205 14.7593 28.6807 15.4587C30.441 16.158 31.9457 17.3428 33.0045 18.8631C34.0634 20.3835 34.6287 22.1712 34.6291 24C34.6258 26.4504 33.611 28.7996 31.8069 30.533C30.0028 32.2664 27.5566 33.2427 25.0042 33.248ZM25.0042 17.996C23.768 17.996 22.5596 18.3479 21.5318 19.0072C20.504 19.6665 19.7029 20.6036 19.2299 21.6999C18.7569 22.7963 18.6331 24.0027 18.8742 25.1666C19.1154 26.3304 19.7107 27.3995 20.5847 28.2386C21.4588 29.0778 22.5725 29.6492 23.7848 29.8807C24.9972 30.1122 26.2539 29.9934 27.3959 29.5393C28.538 29.0852 29.5141 28.3161 30.2008 27.3294C30.8876 26.3427 31.2541 25.1827 31.2542 23.996C31.2503 22.4058 30.5906 20.8819 29.4193 19.7575C28.248 18.633 26.6606 17.9997 25.0042 17.996ZM35.0042 16.57C34.7092 16.569 34.4174 16.5122 34.1453 16.4028C33.8733 16.2935 33.6263 16.1338 33.4185 15.9329C32.9989 15.527 32.7644 14.9778 32.7666 14.406C32.7689 13.8342 33.0076 13.2867 33.4303 12.8838C33.8531 12.481 34.4252 12.2559 35.0208 12.258C35.6164 12.2601 36.1868 12.4893 36.6064 12.8951C37.026 13.301 37.2605 13.8502 37.2583 14.422C37.2561 14.9938 37.0174 15.5414 36.5946 15.9442C36.1719 16.347 35.5998 16.5721 35.0042 16.57Z" fill="white"/>
</svg>
