<svg width="24" height="24" viewBox="0 0 24 24" fill="none" xmlns="http://www.w3.org/2000/svg">
<path d="M18.677 19.607L12.962 13.891C11.7358 14.7628 10.2268 15.142 8.73415 14.9537C7.24148 14.7653 5.87405 14.023 4.90288 12.8739C3.9317 11.7248 3.42767 10.2528 3.49066 8.74965C3.55366 7.24646 4.17909 5.82179 5.243 4.758C6.30663 3.69375 7.73129 3.06797 9.2346 3.0047C10.7379 2.94143 12.2101 3.4453 13.3594 4.41641C14.5087 5.38753 15.2511 6.75501 15.4396 8.2478C15.6281 9.74058 15.2488 11.2497 14.377 12.476L20.092 18.192L18.678 19.606L18.677 19.607ZM9.485 5C8.56506 4.99978 7.67317 5.31667 6.95959 5.89727C6.246 6.47786 5.75436 7.28667 5.56748 8.18743C5.3806 9.08819 5.50992 10.0258 5.93364 10.8424C6.35736 11.6589 7.04958 12.3045 7.89368 12.6702C8.73778 13.036 9.68216 13.0996 10.5677 12.8504C11.4532 12.6012 12.2258 12.0544 12.7552 11.302C13.2847 10.5497 13.5386 9.63791 13.4743 8.72023C13.4099 7.80254 13.0312 6.93508 12.402 6.264L13.007 6.864L12.325 6.184L12.313 6.172C11.9426 5.79929 11.5019 5.50379 11.0164 5.30261C10.531 5.10143 10.0105 4.99858 9.485 5Z" fill="black"/>
</svg>
