<svg width="37" height="37" viewBox="0 0 37 37" fill="none" xmlns="http://www.w3.org/2000/svg">
<path d="M30.8256 10.3106C32.2076 9.48444 33.2417 8.18351 33.7348 6.65072C32.4362 7.42128 31.0153 7.96406 29.5337 8.2556C28.5345 7.19855 27.2153 6.49952 25.7795 6.26624C24.3438 6.03295 22.8711 6.27838 21.5886 6.96469C20.3061 7.651 19.2849 8.74009 18.6825 10.0641C18.08 11.388 17.9298 12.8734 18.2549 14.2912C15.6246 14.1592 13.0515 13.4755 10.7026 12.2846C8.35368 11.0936 6.28145 9.42208 4.6204 7.37839C3.77566 8.83542 3.51717 10.5594 3.89743 12.2001C4.27769 13.8408 5.26817 15.2752 6.66773 16.2121C5.61741 16.1784 4.59038 15.894 3.67227 15.3827V15.466C3.67257 16.9937 4.20127 18.4743 5.16871 19.6567C6.13616 20.8391 7.48279 21.6505 8.98023 21.9533C8.006 22.2184 6.98409 22.2574 5.99248 22.0674C6.41602 23.3814 7.23924 24.5304 8.34723 25.354C9.45523 26.1776 10.7927 26.6347 12.173 26.6616C9.82943 28.501 6.93517 29.4985 3.95594 29.4936C3.42715 29.4936 2.8999 29.4628 2.37573 29.4026C5.40112 31.3466 8.92223 32.3785 12.5184 32.375C14.9952 32.392 17.4507 31.9167 19.7423 30.9766C22.0339 30.0366 24.1159 28.6505 25.8672 26.899C27.6186 25.1475 29.0045 23.0654 29.9443 20.7738C30.8842 18.4821 31.3593 16.0265 31.3421 13.5497C31.3421 13.2629 31.3359 12.9777 31.3221 12.6941C32.6178 11.7577 33.7361 10.5976 34.6243 9.26847C33.4172 9.80351 32.1368 10.1548 30.8256 10.3106Z" fill="white"/>
</svg>
