<svg width="42" height="30" viewBox="0 0 42 30" fill="none" xmlns="http://www.w3.org/2000/svg">
<path d="M21.0125 29.6084H20.9709C20.8417 29.6084 7.91878 29.5834 4.65836 28.698C3.7774 28.4607 2.97424 27.9961 2.32928 27.3508C1.68432 26.7054 1.22019 25.902 0.983361 25.0209C0.397078 21.7133 0.113958 18.3591 0.137528 15.0001C0.122392 11.6355 0.413173 8.27656 1.00628 4.96466C1.2498 4.08211 1.71607 3.27696 2.36034 2.62648C3.00462 1.97601 3.80526 1.50205 4.68545 1.25008C7.85628 0.416748 20.4229 0.416748 20.9563 0.416748H21C21.1313 0.416748 34.0875 0.441748 37.3146 1.32716C39.1042 1.81258 40.5021 3.2105 40.9854 5.00008C41.5896 8.32091 41.875 11.6897 41.8334 15.0647C41.8479 18.4251 41.5565 21.78 40.9625 25.0876C40.7226 25.9677 40.2566 26.7698 39.6108 27.4141C38.965 28.0584 38.1619 28.5226 37.2813 28.7605C34.1146 29.6001 21.5459 29.6084 21.0125 29.6084ZM16.8459 8.7605L16.8354 21.2605L27.6938 15.0105L16.8459 8.7605Z" fill="white"/>
</svg>
